<?xml version="1.0" encoding="UTF-8"?> <svg xmlns="http://www.w3.org/2000/svg" xmlns:xlink="http://www.w3.org/1999/xlink" width="412" zoomAndPan="magnify" viewBox="0 0 309 60.75" height="81" preserveAspectRatio="xMidYMid meet" version="1.0"><defs><clipPath id="08c8466893"><path d="M 0.632812 0 L 62 0 L 62 60.5 L 0.632812 60.5 Z M 0.632812 0 " clip-rule="nonzero"/></clipPath><clipPath id="1c6fcd0d97"><path d="M 31 24 L 68 24 L 68 60.5 L 31 60.5 Z M 31 24 " clip-rule="nonzero"/></clipPath><clipPath id="3ae82275ba"><path d="M 277 17 L 295.667969 17 L 295.667969 44 L 277 44 Z M 277 17 " clip-rule="nonzero"/></clipPath><clipPath id="a446fa8bbd"><path d="M 295.570312 0 L 308.265625 0 L 308.265625 12.699219 L 295.570312 12.699219 Z M 295.570312 0 " clip-rule="nonzero"/></clipPath></defs><g clip-path="url(#08c8466893)"><path fill="#086ad8" d="M 47.769531 28.152344 C 47.851562 28.808594 47.894531 29.472656 47.898438 30.136719 C 47.902344 30.800781 47.867188 31.460938 47.792969 32.121094 C 47.71875 32.78125 47.605469 33.4375 47.457031 34.082031 C 47.304688 34.730469 47.117188 35.367188 46.894531 35.992188 C 46.671875 36.617188 46.410156 37.226562 46.117188 37.824219 C 45.820312 38.417969 45.492188 38.992188 45.128906 39.550781 C 44.765625 40.105469 44.371094 40.640625 43.949219 41.152344 C 43.523438 41.660156 43.070312 42.144531 42.589844 42.605469 C 42.105469 43.0625 41.601562 43.492188 41.070312 43.890625 C 40.539062 44.289062 39.984375 44.65625 39.414062 44.988281 C 38.839844 45.324219 38.246094 45.625 37.636719 45.890625 C 37.027344 46.152344 36.40625 46.382812 35.769531 46.578125 C 35.136719 46.769531 34.492188 46.925781 33.835938 47.042969 C 33.183594 47.160156 32.523438 47.238281 31.863281 47.28125 C 31.199219 47.320312 30.535156 47.324219 29.871094 47.285156 C 29.210938 47.25 28.550781 47.175781 27.894531 47.0625 C 27.242188 46.949219 26.59375 46.796875 25.957031 46.609375 C 25.320312 46.421875 24.699219 46.195312 24.085938 45.933594 C 23.476562 45.671875 22.882812 45.375 22.308594 45.046875 C 21.730469 44.714844 21.175781 44.351562 20.640625 43.957031 C 20.109375 43.5625 19.597656 43.136719 19.113281 42.683594 C 18.628906 42.226562 18.175781 41.746094 17.746094 41.238281 C 17.316406 40.730469 16.921875 40.199219 16.554688 39.644531 C 16.1875 39.089844 15.855469 38.515625 15.554688 37.925781 C 15.257812 37.332031 14.992188 36.722656 14.765625 36.097656 C 14.535156 35.476562 14.34375 34.839844 14.191406 34.195312 C 14.035156 33.546875 13.921875 32.894531 13.84375 32.234375 C 13.765625 31.574219 13.726562 30.914062 13.722656 30.25 C 13.722656 29.585938 13.761719 28.921875 13.835938 28.261719 C 13.914062 27.601562 14.027344 26.949219 14.179688 26.304688 C 14.332031 25.65625 14.523438 25.019531 14.75 24.398438 C 14.976562 23.773438 15.238281 23.164062 15.535156 22.570312 C 15.832031 21.976562 16.164062 21.402344 16.527344 20.847656 C 16.894531 20.289062 17.289062 19.757812 17.714844 19.25 C 18.140625 18.742188 18.597656 18.257812 19.078125 17.800781 C 19.5625 17.347656 20.070312 16.917969 20.605469 16.523438 C 21.136719 16.125 21.691406 15.761719 22.265625 15.429688 C 22.839844 15.097656 23.433594 14.800781 24.042969 14.535156 C 24.652344 14.273438 25.277344 14.046875 25.914062 13.855469 C 26.550781 13.664062 27.195312 13.511719 27.847656 13.398438 C 28.503906 13.28125 29.160156 13.207031 29.824219 13.167969 C 30.488281 13.128906 31.152344 13.128906 31.8125 13.167969 C 32.476562 13.207031 33.136719 13.285156 33.789062 13.402344 C 34.445312 13.515625 35.089844 13.667969 35.726562 13.859375 C 36.363281 14.050781 36.984375 14.28125 37.59375 14.542969 C 38.203125 14.808594 38.796875 15.105469 39.371094 15.4375 C 39.945312 15.769531 40.5 16.136719 41.03125 16.53125 C 41.5625 16.929688 42.070312 17.355469 42.554688 17.8125 L 58.355469 17.8125 C 58.105469 17.253906 57.835938 16.699219 57.550781 16.15625 C 57.265625 15.613281 56.960938 15.078125 56.644531 14.550781 C 56.324219 14.023438 55.992188 13.507812 55.640625 13.003906 C 55.289062 12.5 54.925781 12.003906 54.546875 11.519531 C 54.164062 11.039062 53.769531 10.566406 53.363281 10.105469 C 52.953125 9.648438 52.53125 9.203125 52.09375 8.769531 C 51.65625 8.335938 51.210938 7.914062 50.746094 7.507812 C 50.285156 7.105469 49.8125 6.710938 49.324219 6.335938 C 48.839844 5.957031 48.34375 5.597656 47.835938 5.25 C 47.328125 4.902344 46.808594 4.574219 46.28125 4.257812 C 45.753906 3.941406 45.21875 3.644531 44.671875 3.363281 C 44.125 3.078125 43.570312 2.8125 43.007812 2.566406 C 42.445312 2.316406 41.875 2.085938 41.300781 1.871094 C 40.722656 1.660156 40.140625 1.464844 39.550781 1.285156 C 38.964844 1.105469 38.371094 0.945312 37.773438 0.804688 C 37.171875 0.664062 36.570312 0.539062 35.964844 0.433594 C 35.359375 0.328125 34.75 0.242188 34.140625 0.175781 C 33.53125 0.109375 32.917969 0.0585938 32.304688 0.0273438 C 31.6875 -0.00390625 31.074219 -0.015625 30.460938 -0.0078125 C 29.84375 0 29.230469 0.0273438 28.617188 0.0703125 C 28.003906 0.113281 27.394531 0.179688 26.785156 0.261719 C 26.175781 0.339844 25.566406 0.441406 24.964844 0.5625 C 24.363281 0.679688 23.761719 0.816406 23.167969 0.972656 C 22.574219 1.128906 21.984375 1.300781 21.398438 1.492188 C 20.816406 1.683594 20.238281 1.894531 19.664062 2.121094 C 19.09375 2.347656 18.53125 2.589844 17.972656 2.851562 C 17.417969 3.113281 16.867188 3.390625 16.328125 3.6875 C 15.789062 3.980469 15.257812 4.292969 14.738281 4.617188 C 14.21875 4.945312 13.707031 5.289062 13.207031 5.644531 C 12.707031 6.003906 12.21875 6.378906 11.742188 6.765625 C 11.265625 7.152344 10.800781 7.554688 10.347656 7.972656 C 9.898438 8.386719 9.457031 8.816406 9.03125 9.261719 C 8.605469 9.703125 8.191406 10.160156 7.792969 10.628906 C 7.394531 11.097656 7.011719 11.578125 6.644531 12.070312 C 6.273438 12.558594 5.921875 13.0625 5.582031 13.578125 C 5.246094 14.089844 4.921875 14.613281 4.617188 15.144531 C 4.308594 15.679688 4.019531 16.222656 3.746094 16.773438 C 3.472656 17.324219 3.214844 17.882812 2.976562 18.449219 C 2.738281 19.015625 2.515625 19.585938 2.3125 20.167969 C 2.109375 20.746094 1.921875 21.332031 1.753906 21.925781 C 1.585938 22.515625 1.433594 23.109375 1.304688 23.710938 C 1.171875 24.3125 1.058594 24.914062 0.960938 25.523438 C 0.867188 26.128906 0.789062 26.742188 0.734375 27.351562 C 0.675781 27.964844 0.636719 28.578125 0.617188 29.191406 C 0.59375 29.808594 0.59375 30.421875 0.609375 31.035156 C 0.628906 31.652344 0.664062 32.265625 0.71875 32.875 C 0.773438 33.488281 0.84375 34.097656 0.9375 34.707031 C 1.027344 35.316406 1.140625 35.917969 1.269531 36.519531 C 1.398438 37.121094 1.542969 37.71875 1.707031 38.3125 C 1.875 38.902344 2.058594 39.488281 2.257812 40.070312 C 2.457031 40.652344 2.675781 41.226562 2.914062 41.792969 C 3.148438 42.363281 3.402344 42.921875 3.671875 43.472656 C 3.941406 44.027344 4.230469 44.570312 4.535156 45.105469 C 4.835938 45.640625 5.15625 46.164062 5.492188 46.679688 C 5.828125 47.195312 6.179688 47.699219 6.542969 48.191406 C 6.910156 48.6875 7.292969 49.167969 7.6875 49.640625 C 8.082031 50.109375 8.492188 50.566406 8.917969 51.011719 C 9.339844 51.460938 9.777344 51.890625 10.226562 52.308594 C 10.675781 52.730469 11.140625 53.132812 11.613281 53.523438 C 12.089844 53.914062 12.574219 54.289062 13.074219 54.652344 C 13.570312 55.011719 14.078125 55.359375 14.597656 55.6875 C 15.117188 56.019531 15.644531 56.332031 16.183594 56.628906 C 16.722656 56.925781 17.269531 57.207031 17.824219 57.472656 C 18.378906 57.734375 18.941406 57.984375 19.511719 58.214844 C 20.082031 58.441406 20.660156 58.65625 21.242188 58.851562 C 21.824219 59.042969 22.414062 59.222656 23.007812 59.378906 C 23.601562 59.539062 24.199219 59.679688 24.800781 59.800781 C 25.40625 59.921875 26.011719 60.027344 26.621094 60.113281 C 27.226562 60.199219 27.839844 60.265625 28.453125 60.3125 C 29.066406 60.359375 29.679688 60.390625 30.292969 60.398438 C 30.910156 60.410156 31.523438 60.402344 32.136719 60.375 C 32.75 60.347656 33.363281 60.300781 33.976562 60.238281 C 34.585938 60.171875 35.195312 60.089844 35.800781 59.988281 C 36.410156 59.886719 37.011719 59.765625 37.609375 59.628906 C 38.210938 59.488281 38.804688 59.332031 39.394531 59.15625 C 39.980469 58.980469 40.566406 58.789062 41.144531 58.578125 C 41.722656 58.367188 42.292969 58.140625 42.855469 57.894531 C 43.417969 57.652344 43.976562 57.386719 44.523438 57.109375 C 45.070312 56.828125 45.609375 56.535156 46.140625 56.222656 C 46.667969 55.910156 47.1875 55.582031 47.699219 55.238281 C 48.207031 54.894531 48.707031 54.535156 49.195312 54.160156 C 49.683594 53.785156 50.160156 53.398438 50.621094 52.996094 C 51.085938 52.589844 51.539062 52.175781 51.976562 51.742188 C 52.414062 51.3125 52.839844 50.867188 53.25 50.410156 C 53.664062 49.953125 54.058594 49.484375 54.441406 49.003906 C 54.824219 48.523438 55.191406 48.03125 55.546875 47.527344 C 55.898438 47.023438 56.234375 46.511719 56.558594 45.984375 C 56.878906 45.460938 57.183594 44.929688 57.472656 44.386719 C 57.761719 43.84375 58.03125 43.292969 58.289062 42.730469 C 58.542969 42.171875 58.78125 41.605469 59 41.03125 C 59.222656 40.457031 59.425781 39.878906 59.609375 39.292969 C 59.796875 38.707031 59.960938 38.113281 60.109375 37.515625 C 60.261719 36.921875 60.390625 36.320312 60.503906 35.714844 C 60.617188 35.113281 60.710938 34.503906 60.785156 33.894531 C 60.859375 33.285156 60.917969 32.671875 60.953125 32.058594 C 60.992188 31.445312 61.011719 30.832031 61.011719 30.214844 C 61.011719 29.523438 60.988281 28.835938 60.9375 28.144531 Z M 47.769531 28.152344 " fill-opacity="1" fill-rule="nonzero"/></g><g clip-path="url(#1c6fcd0d97)"><path fill="#f95e77" d="M 39.273438 24.371094 L 31.351562 37.484375 L 54.273438 37.484375 L 54.273438 60.40625 L 67.386719 52.480469 L 67.386719 24.371094 Z M 39.273438 24.371094 " fill-opacity="1" fill-rule="nonzero"/></g><path fill="#ffffff" d="M 80.503906 30.195312 C 80.503906 21.929688 86.644531 16.613281 94.285156 16.613281 C 99.398438 16.613281 102.746094 19.054688 104.835938 22.046875 L 101.101562 24.210938 C 100.308594 23.117188 99.3125 22.261719 98.113281 21.644531 C 96.910156 21.027344 95.632812 20.714844 94.285156 20.707031 C 89.085938 20.707031 85.222656 24.644531 85.222656 30.195312 C 85.222656 35.667969 89.078125 39.6875 94.277344 39.6875 C 95.421875 39.683594 96.53125 39.476562 97.601562 39.070312 C 98.671875 38.664062 99.632812 38.078125 100.492188 37.320312 L 100.492188 33.265625 L 92.621094 33.265625 L 92.621094 29.210938 L 105.046875 29.210938 L 105.046875 39.015625 C 104.375 39.78125 103.628906 40.464844 102.804688 41.066406 C 101.984375 41.667969 101.109375 42.179688 100.179688 42.59375 C 99.25 43.007812 98.285156 43.316406 97.285156 43.523438 C 96.289062 43.730469 95.28125 43.828125 94.261719 43.820312 C 86.644531 43.820312 80.503906 38.425781 80.503906 30.195312 Z M 80.503906 30.195312 " fill-opacity="1" fill-rule="nonzero"/><path fill="#ffffff" d="M 132.039062 43.308594 L 130.105469 38.230469 L 118.054688 38.230469 L 116.128906 43.308594 L 110.894531 43.308594 L 121.210938 17.046875 L 126.957031 17.046875 L 137.269531 43.308594 Z M 124.097656 21.652344 L 119.359375 34.171875 L 128.808594 34.171875 Z M 124.097656 21.652344 " fill-opacity="1" fill-rule="nonzero"/><path fill="#ffffff" d="M 144.042969 17.046875 L 148.648438 17.046875 L 148.648438 43.308594 L 144.042969 43.308594 Z M 144.042969 17.046875 " fill-opacity="1" fill-rule="nonzero"/><path fill="#ffffff" d="M 176.480469 43.308594 L 162.777344 24.539062 L 162.777344 43.320312 L 158.171875 43.320312 L 158.171875 17.046875 L 162.902344 17.046875 L 176.324219 35.242188 L 176.324219 17.046875 L 180.929688 17.046875 L 180.929688 43.308594 Z M 176.480469 43.308594 " fill-opacity="1" fill-rule="nonzero"/><path fill="#ffffff" d="M 189.3125 30.195312 C 189.3125 22.085938 195.335938 16.597656 203.089844 16.597656 C 208.367188 16.597656 211.675781 19.316406 213.605469 22.46875 L 209.707031 24.539062 C 209.367188 23.960938 208.960938 23.4375 208.484375 22.964844 C 208.007812 22.492188 207.480469 22.089844 206.902344 21.753906 C 206.324219 21.417969 205.710938 21.160156 205.0625 20.984375 C 204.417969 20.804688 203.761719 20.714844 203.089844 20.707031 C 197.910156 20.707031 194.035156 24.644531 194.035156 30.195312 C 194.035156 35.667969 197.894531 39.6875 203.089844 39.6875 C 203.757812 39.675781 204.414062 39.582031 205.058594 39.402344 C 205.703125 39.226562 206.316406 38.96875 206.894531 38.636719 C 207.472656 38.300781 208 37.898438 208.476562 37.429688 C 208.953125 36.960938 209.363281 36.441406 209.707031 35.867188 L 213.640625 37.835938 C 211.636719 40.984375 208.367188 43.78125 203.089844 43.78125 C 195.335938 43.78125 189.3125 38.265625 189.3125 30.195312 Z M 189.3125 30.195312 " fill-opacity="1" fill-rule="nonzero"/><path fill="#ffffff" d="M 239.46875 43.308594 L 237.535156 38.230469 L 225.492188 38.230469 L 223.5625 43.308594 L 218.324219 43.308594 L 228.640625 17.046875 L 234.386719 17.046875 L 244.703125 43.308594 Z M 231.527344 21.652344 L 226.773438 34.171875 L 236.226562 34.171875 Z M 231.527344 21.652344 " fill-opacity="1" fill-rule="nonzero"/><path fill="#ffffff" d="M 251.472656 43.308594 L 251.472656 17.046875 L 269.460938 17.046875 L 269.460938 21.085938 L 256.078125 21.085938 L 256.078125 27.875 L 269.195312 27.875 L 269.195312 31.929688 L 256.078125 31.929688 L 256.078125 43.320312 Z M 251.472656 43.308594 " fill-opacity="1" fill-rule="nonzero"/><g clip-path="url(#3ae82275ba)"><path fill="#ffffff" d="M 277.570312 43.308594 L 277.570312 17.046875 L 295.5625 17.046875 L 295.5625 21.085938 L 282.179688 21.085938 L 282.179688 27.875 L 295.296875 27.875 L 295.296875 31.929688 L 282.179688 31.929688 L 282.179688 39.25 L 295.5625 39.25 L 295.5625 43.308594 Z M 277.570312 43.308594 " fill-opacity="1" fill-rule="nonzero"/></g><path fill="#ffffff" d="M 301.363281 6.050781 C 301.617188 6.050781 301.828125 6.039062 302.003906 6.015625 C 302.179688 5.992188 302.328125 5.957031 302.449219 5.914062 C 302.671875 5.828125 302.824219 5.714844 302.910156 5.570312 C 302.996094 5.425781 303.039062 5.257812 303.039062 5.066406 C 303.039062 4.90625 303.003906 4.761719 302.9375 4.636719 C 302.871094 4.511719 302.753906 4.414062 302.59375 4.34375 C 302.488281 4.292969 302.355469 4.257812 302.195312 4.238281 C 302.039062 4.214844 301.839844 4.203125 301.605469 4.203125 L 300.820312 4.203125 L 300.820312 6.050781 Z M 304.171875 5.089844 C 304.171875 5.511719 304.054688 5.867188 303.824219 6.160156 C 303.589844 6.453125 303.230469 6.667969 302.746094 6.808594 L 302.746094 6.828125 L 304.535156 9.304688 L 303.214844 9.304688 L 301.574219 6.972656 L 300.820312 6.972656 L 300.820312 9.304688 L 299.714844 9.304688 L 299.714844 3.28125 L 301.546875 3.28125 C 301.851562 3.28125 302.132812 3.296875 302.394531 3.332031 C 302.65625 3.367188 302.878906 3.417969 303.066406 3.488281 C 303.417969 3.621094 303.691406 3.824219 303.882812 4.089844 C 304.078125 4.355469 304.171875 4.6875 304.171875 5.089844 " fill-opacity="1" fill-rule="nonzero"/><g clip-path="url(#a446fa8bbd)"><path fill="#ffffff" d="M 307.472656 6.285156 C 307.472656 9.382812 304.953125 11.902344 301.855469 11.902344 C 298.753906 11.902344 296.234375 9.382812 296.234375 6.285156 C 296.234375 3.1875 298.753906 0.667969 301.855469 0.667969 C 304.953125 0.667969 307.472656 3.1875 307.472656 6.285156 Z M 307.644531 3.839844 C 307.328125 3.089844 306.875 2.417969 306.296875 1.839844 C 305.71875 1.261719 305.046875 0.808594 304.300781 0.492188 C 303.523438 0.167969 302.703125 0 301.855469 0 C 301.003906 0 300.183594 0.167969 299.40625 0.492188 C 298.660156 0.808594 297.988281 1.261719 297.410156 1.839844 C 296.832031 2.417969 296.378906 3.089844 296.0625 3.839844 C 295.734375 4.613281 295.570312 5.4375 295.570312 6.285156 C 295.570312 7.132812 295.734375 7.957031 296.0625 8.730469 C 296.378906 9.480469 296.832031 10.152344 297.410156 10.730469 C 297.988281 11.304688 298.660156 11.757812 299.40625 12.074219 C 300.183594 12.402344 301.003906 12.570312 301.855469 12.570312 C 302.703125 12.570312 303.523438 12.402344 304.300781 12.074219 C 305.046875 11.757812 305.71875 11.304688 306.296875 10.730469 C 306.875 10.152344 307.328125 9.480469 307.644531 8.730469 C 307.972656 7.957031 308.136719 7.132812 308.136719 6.285156 C 308.136719 5.4375 307.972656 4.613281 307.644531 3.839844 " fill-opacity="1" fill-rule="nonzero"/></g></svg> 