<svg width="420" height="260" viewBox="0 0 420 260" xmlns="http://www.w3.org/2000/svg" role="img" aria-labelledby="title">
  <title id="title">OpenClaw architecture</title>
  <defs>
    <linearGradient id="panelBgArch" x1="0" y1="0" x2="1" y2="1">
      <stop offset="0%" stop-color="#020617" />
      <stop offset="100%" stop-color="#050816" />
    </linearGradient>
    <linearGradient id="accentArch" x1="0" y1="0" x2="1" y2="1">
      <stop offset="0%" stop-color="#58a6ff" />
      <stop offset="100%" stop-color="#1f6feb" />
    </linearGradient>
    <linearGradient id="accentRedArch" x1="0" y1="0" x2="1" y2="1">
      <stop offset="0%" stop-color="#ff4b5c" />
      <stop offset="100%" stop-color="#ff7b89" />
    </linearGradient>
  </defs>

  <rect x="12" y="16" width="396" height="228" rx="24" fill="url(#panelBgArch)" stroke="#1f2937" />

  <!-- pipeline blocks -->
  <rect x="52" y="76" width="96" height="40" rx="10" fill="#020617" stroke="#1f2937" />
  <rect x="162" y="76" width="96" height="40" rx="10" fill="#020617" stroke="#1f2937" />
  <rect x="272" y="76" width="96" height="40" rx="10" fill="#020617" stroke="#1f2937" />

  <rect x="92" y="140" width="96" height="40" rx="10" fill="#020617" stroke="#1f2937" />
  <rect x="212" y="140" width="96" height="40" rx="10" fill="#020617" stroke="#1f2937" />

  <!-- nodes -->
  <circle cx="100" cy="96" r="10" fill="url(#accentArch)" />
  <circle cx="210" cy="96" r="10" fill="url(#accentArch)" />
  <circle cx="320" cy="96" r="10" fill="url(#accentRedArch)" />

  <circle cx="140" cy="160" r="10" fill="url(#accentArch)" />
  <circle cx="260" cy="160" r="10" fill="url(#accentArch)" />

  <!-- edges -->
  <g stroke="#1f6feb" stroke-width="1.8" stroke-linecap="round">
    <path d="M148 96 H182" />
    <path d="M258 96 H292" />
    <path d="M110 112 L132 144" />
    <path d="M218 112 L236 144" />
    <path d="M304 112 L276 144" />
  </g>
</svg>

